<?xml version="1.0" encoding="utf-8"?>
<!-- Generator: Adobe Illustrator 22.0.1, SVG Export Plug-In . SVG Version: 6.00 Build 0)  -->
<svg version="1.1" id="Layer_1" xmlns="http://www.w3.org/2000/svg" xmlns:xlink="http://www.w3.org/1999/xlink" x="0px" y="0px"
	 viewBox="0 0 149 149" style="enable-background:new 0 0 149 149;" xml:space="preserve">
<style type="text/css">
	.st0{fill:none;stroke:#9ABD4B;stroke-width:5;stroke-miterlimit:10;}
	.st1{fill:none;stroke:#5D7031;stroke-width:4;stroke-linecap:round;stroke-linejoin:round;stroke-miterlimit:10;}
	.st2{fill:none;stroke:#5D7031;stroke-width:2;stroke-miterlimit:10;}
	.st3{fill:none;stroke:#5D7031;stroke-width:2;stroke-linecap:round;stroke-miterlimit:10;}
	.st4{fill:none;stroke:#E4AE36;stroke-width:2;stroke-linecap:round;stroke-linejoin:round;stroke-miterlimit:10;}
	.st5{fill:none;stroke:#E4AE36;stroke-width:2.1429;stroke-linecap:round;stroke-linejoin:round;stroke-miterlimit:10;}
</style>
<circle class="st0" cx="74.5" cy="74.5" r="72"/>
<path class="st1" d="M15,55.8c0,0,9.2,10.9,9.1,17.8S15,91.5,15,91.5s24.1-12.1,28.7-11.2c4.5,0.9,10,5.2,10,5.2l-6.9,0.7l9.2,8.8
	l13.3-4.5c0,0,5.5,2.6,13.4,3.2c1.1,0.1-3.4,2.3-3.4,2.3l12.1,6.8l6-6c0,0,4.8,2.5,18.5-1.7c10.3-3.2,17-5.9,17-5.9l-12.6-3.5
	l17.4-7.1c0,0-4.3-11.3-22.2-15.2S87.3,61,87.3,61l-13.3-9.8L67.2,61c0,0-19.5,5.4-27.2,4C32.3,63.6,15,55.8,15,55.8z"/>
<circle class="st2" cx="117.9" cy="74.5" r="2.5"/>
<path class="st3" d="M112.1,91.5c0,0-6.7-4.2-6.7-9.9c0-5.7,2.6-11.4,2.6-11.4"/>
<path class="st3" d="M42.5,71c0,0,19.1-3.8,31-4.3s29.5,2.5,29.5,2.5"/>
<circle class="st4" cx="125.8" cy="50.8" r="5"/>
<circle class="st5" cx="110.5" cy="31.5" r="7.5"/>
<circle class="st4" cx="80" cy="19.8" r="9.3"/>
<circle class="st4" cx="25.4" cy="101.2" r="5"/>
<circle class="st5" cx="41.9" cy="119.4" r="7.5"/>
<circle class="st4" cx="73.1" cy="129.1" r="9.3"/>
</svg>
