<?xml version="1.0" encoding="utf-8"?>
<!-- Generator: Adobe Illustrator 22.0.1, SVG Export Plug-In . SVG Version: 6.00 Build 0)  -->
<svg version="1.1" id="Layer_1" xmlns="http://www.w3.org/2000/svg" xmlns:xlink="http://www.w3.org/1999/xlink" x="0px" y="0px"
	 viewBox="0 0 149 149" style="enable-background:new 0 0 149 149;" xml:space="preserve">
<style type="text/css">
	.st0{fill:none;stroke:#9ABD4B;stroke-width:5;stroke-miterlimit:10;}
	.st1{fill:#FFFFFF;stroke:#5D7031;stroke-width:4;stroke-linecap:round;stroke-linejoin:round;stroke-miterlimit:10;}
	.st2{fill:none;stroke:#E4AE36;stroke-width:4;stroke-linecap:round;stroke-linejoin:round;stroke-miterlimit:10;}
</style>
<circle class="st0" cx="74.5" cy="74.5" r="72"/>
<g>
	<path class="st1" d="M26.6,66.6C26.3,64.4,38,43,38,43s27.3-5.7,29.7-6.1c5-0.7,6.1,3.2,4.6,6.1c-1.5,2.9-9.9,7-9.9,7L84.8,60
		c0,0,3.6,1.8,1.6,5.9c-1.8,3.7-8,1.4-8,1.4L63.4,61l20.3,9.7c0,0,3.7,2.6,1.6,6.2c-2,3.4-8.5,1-8.5,1L60,69.5l14.7,7.9
		c0,0,4.4,3.7,2.3,6.8c-1.9,2.8-7.7,0.4-7.7,0.4l-11.4-7l8.8,5.8c0,0,2,2.8,0.1,5.5c-2,2.8-8.2,0.1-8.2,0.1S27.3,73.4,26.6,66.6z"/>
	
		<rect x="19.4" y="34.3" transform="matrix(0.8911 0.4539 -0.4539 0.8911 26.2922 -6.1893)" class="st2" width="13.2" height="34.8"/>
</g>
<g>
	<path class="st1" d="M100.4,38.2c2.2,0.5,18.7,18.5,18.7,18.5s-3.4,27.7-3.8,30.1c-0.9,4.9-5,4.7-7.3,2.4
		c-2.3-2.3-3.4-11.6-3.4-11.6L87.8,95.5c0,0-2.9,2.9-6.1-0.4c-2.9-2.9,1.3-8,1.3-8l10.9-12.3L78,90.9c0,0-3.7,2.7-6.4-0.5
		c-2.5-3,1.8-8.4,1.8-8.4l13.3-13.2L74.6,80.2c0,0-4.9,3-7.2-0.1c-2-2.7,2.1-7.4,2.1-7.4l10.3-8.5l-8.3,6.4c0,0-3.3,1-5.3-1.7
		c-2-2.8,2.6-7.8,2.6-7.8S93.7,36.7,100.4,38.2z"/>
	
		<rect x="108.6" y="25.5" transform="matrix(-0.7172 0.6968 -0.6968 -0.7172 227.6434 -6.6062)" class="st2" width="13.2" height="34.8"/>
</g>
<g>
	<path class="st1" d="M92.8,118.9c-1.7,1.4-26,4-26,4s-20.2-19.2-21.9-21c-3.4-3.7-0.8-6.8,2.4-7.3s11.4,4.2,11.4,4.2l-4.4-24.1
		c0,0-0.6-4,4-4.7c4-0.6,5.7,5.8,5.7,5.8l3.4,16l-3.5-22.3c0,0,0-4.6,4.2-4.8c3.9-0.3,5.6,6.5,5.6,6.5l2.7,18.6l-1.9-16.6
		c0,0,0.6-5.7,4.3-5.7c3.3,0,4.7,6.1,4.7,6.1l0.7,13.3l-0.2-10.5c0,0,1.2-3.3,4.5-3.2c3.5,0.1,4.7,6.7,4.7,6.7S98,114.5,92.8,118.9z
		"/>
	
		<rect x="73.9" y="110.5" transform="matrix(-0.132 -0.9913 0.9913 -0.132 -35.6213 224.5673)" class="st2" width="13.2" height="34.8"/>
</g>
</svg>
