<?xml version="1.0" encoding="utf-8"?>
<!-- Generator: Adobe Illustrator 22.0.1, SVG Export Plug-In . SVG Version: 6.00 Build 0)  -->
<svg version="1.1" id="Layer_1" xmlns="http://www.w3.org/2000/svg" xmlns:xlink="http://www.w3.org/1999/xlink" x="0px" y="0px"
	 viewBox="0 0 149 149" style="enable-background:new 0 0 149 149;" xml:space="preserve">
<style type="text/css">
	.st0{fill:none;stroke:#9ABD4B;stroke-width:5;stroke-miterlimit:10;}
	.st1{fill:none;stroke:#5D7031;stroke-width:8;stroke-linecap:round;stroke-linejoin:round;stroke-miterlimit:10;}
	.st2{fill:none;stroke:#E4AE36;stroke-width:5;stroke-linecap:round;stroke-linejoin:round;stroke-miterlimit:10;}
	.st3{fill:none;stroke:#666665;stroke-width:2;stroke-linecap:round;stroke-linejoin:round;stroke-miterlimit:10;}
</style>
<circle class="st0" cx="74.5" cy="74.5" r="72"/>
<path class="st1" d="M37.2,90.8c0,0,4.5,1.3,9.2-4.7s6.1-10.6,6.1-10.6s-6.4,19.5-2.6,33.1c2.5,9,12.3,18.6,24.6,16.5
	c15.7-2.7,20.3-15.5,18.3-26.3c-1.6-8.9-9.2-20-10.3-25C80.6,65.3,83.3,61,83.3,61"/>
<path class="st1" d="M59.3,94.1c0,0.1-3.5-0.8-5.5-7.1c-0.9-3-1.3-11.5-1.3-11.5"/>
<circle class="st2" cx="88.9" cy="51.1" r="8.8"/>
<path class="st3" d="M89.1,46.3l6.1-6.1l-3.1,8.6l6.3-5.5l-3.5,7c0.8,0.1,18.8,7.7,25.3-3.1c4-6.6-1.1-19.3-15-22.6
	S85.7,36.7,65.9,32C53.3,29,47,20.3,47,20.3"/>
</svg>
