<?xml version="1.0" encoding="utf-8"?>
<!-- Generator: Adobe Illustrator 22.0.1, SVG Export Plug-In . SVG Version: 6.00 Build 0)  -->
<svg version="1.1" id="Layer_1" xmlns="http://www.w3.org/2000/svg" xmlns:xlink="http://www.w3.org/1999/xlink" x="0px" y="0px"
	 viewBox="0 0 149 149" style="enable-background:new 0 0 149 149;" xml:space="preserve">
<style type="text/css">
	.st0{fill:none;stroke:#9ABD4B;stroke-width:5;stroke-miterlimit:10;}
	.st1{fill:none;stroke:#9ABD4B;stroke-width:4;stroke-linecap:round;stroke-miterlimit:10;}
	.st2{fill:#5D7031;stroke:#5D7031;stroke-width:2.3573;stroke-linecap:round;stroke-miterlimit:10;}
	.st3{fill:#5D7031;stroke:#5D7031;stroke-width:1.6538;stroke-linecap:round;stroke-miterlimit:10;}
	.st4{fill:none;stroke:#E4AE36;stroke-width:2;stroke-linecap:round;stroke-linejoin:round;stroke-miterlimit:10;}
	.st5{fill:#FFFFFF;stroke:#E4AE36;stroke-width:2;stroke-linecap:round;stroke-linejoin:round;stroke-miterlimit:10;}
	.st6{fill:none;stroke:#9ABD4B;stroke-width:2;stroke-linecap:round;stroke-miterlimit:10;}
</style>
<circle class="st0" cx="74.5" cy="74.5" r="72"/>
<path class="st1" d="M21.3,107.5c0,0,7.3-23.3,18.7-27.3s36.9-3.7,50-5.3c27.3-3.3,28.7-25.3,27.3-31.3"/>
<path class="st1" d="M124.5,48.5c0,0,4.8,14.3-5.2,27.7s-29.9,16.9-40,22.7c-18.7,10.7-0.8,39.7-0.8,39.7"/>
<polygon class="st2" points="47.4,20.3 32.5,44.6 38.7,44.6 40.3,44.6 61.5,44.6 "/>
<polygon class="st2" points="26.2,64.3 38.7,44.6 55.1,44.4 65.8,64.2 "/>
<rect x="42.5" y="64.7" class="st2" width="8.8" height="8.3"/>
<polygon class="st3" points="82.7,29.5 72.3,46.7 76.7,46.7 77.8,46.7 92.6,46.7 "/>
<polygon class="st3" points="67.9,60.6 76.7,46.7 88.1,46.6 95.5,60.5 "/>
<rect x="79.3" y="60.9" class="st3" width="6.2" height="5.8"/>
<path class="st4" d="M122.6,113.6c1.5-3.8,2.1-10.3-2.3-12s-7.3-9.4-10-8.7s-9.6,4.3-10.5,5.9c-0.9,1.6-2,10.5-2.4,11.7
	c-0.4,1.3,0.8,4,0.8,4L122.6,113.6z"/>
<path class="st5" d="M84.5,111.1c0,0,5.9-7.6,8.4-6.3c2.6,1.3,7.3,3,10.6,4c3.3,1,2.6,9.6,2.6,9.6l-21.6,1.3V111.1z"/>
<path class="st6" d="M51.4,91c-0.3-0.2,1.9-4.6,5.9-4.9s4.6,3.6,8.4,3.1c3.7-0.5,4-4.7,7-5c5.1-0.5,5,3.7,8.9,3.2
	c4.2-0.5,2.5-4.4,6.4-4.5"/>
<path class="st6" d="M37.2,99.9c-0.3-0.2,1.9-4.6,5.9-4.9s4.6,3.6,8.4,3.1s4-4.7,7-5c5.1-0.5,5,3.7,8.9,3.2c4.2-0.5,2.5-4.4,6.4-4.5
	"/>
</svg>
